# xmcd
#
# Track frame offsets:
#	150
#	13709
#	27713
#	40074
#	61699
#	78521
#
# Disc length: 1441 seconds
#
# Revision: 1
# Processed by: cddbd v1.5.2PL0 Copyright (c) Steve Scherf et al.
# Submitted via: audiograbber 1.83.01
#
DISCID=42059f06
DTITLE=Michael Van Merwyk and Bluesoul - Easy My Pain
DYEAR=2014
DGENRE=Blues
TTITLE0=Blues keeps calling my name
TTITLE1=Happy Man
TTITLE2=Cheeky Darling
TTITLE3=A soul ain't worth a dime
TTITLE4=I love thinking about my baby
TTITLE5=Easy my pain
EXTD=
EXTT0=
EXTT1=
EXTT2=
EXTT3=
EXTT4=
EXTT5=
PLAYORDER=
